<svg xmlns="http://www.w3.org/2000/svg" width="36" height="36" viewBox="0 0 36 36">
  <g id="md-close-circle-outline" transform="translate(-48 -48)">
    <path id="Path_365" data-name="Path 365" d="M66,51.635A14.359,14.359,0,1,1,55.84,55.84,14.306,14.306,0,0,1,66,51.635M66,48A18,18,0,1,0,84,66,18,18,0,0,0,66,48Z" transform="translate(0 0)" fill="#c40080"/>
    <path id="Path_366" data-name="Path 366" d="M170,167.482,167.482,170,161,163.518,154.518,170,152,167.482,158.482,161,152,154.518,154.518,152,161,158.482,167.482,152,170,154.518,163.518,161Z" transform="translate(-95 -95)" fill="#c40080"/>
  </g>
</svg>
