<?xml version="1.0" encoding="utf-8"?>
<!-- Generator: Adobe Illustrator 18.0.0, SVG Export Plug-In . SVG Version: 6.00 Build 0)  -->
<!DOCTYPE svg PUBLIC "-//W3C//DTD SVG 1.1//EN" "http://www.w3.org/Graphics/SVG/1.1/DTD/svg11.dtd">
<svg version="1.1" id="Livello_1" xmlns="http://www.w3.org/2000/svg" xmlns:xlink="http://www.w3.org/1999/xlink" x="0px" y="0px"
	 viewBox="0 0 64 64" enable-background="new 0 0 64 64" xml:space="preserve">
<g>
	<path d="M24,34.7h23.7l-5.5,5.6L46,44l12-12L46,20l-3.9,3.7l5.6,5.6H24V34.7z"/>
	<path d="M32,52.7c-5.5,0-10.7-2.2-14.6-6s-6-9.1-6-14.6c0-5.5,2.1-10.7,6-14.6c3.9-3.9,9.1-6.1,14.6-6.1c5.5,0,10.7,2.1,14.6,6
		l3.8-3.8c-1.1-1.1-2.2-2-3.5-2.9C42.5,7.6,37.3,6,32,6C17.6,6,6,17.7,6,32s11.6,26,26,26c5.4,0,10.5-1.6,14.9-4.7
		c1.2-0.9,2.4-1.8,3.5-2.9l-3.8-3.8C42.6,50.5,37.5,52.7,32,52.7z M56,32.1L55.9,32l0.1-0.1l0.1,0.1L56,32.1z"/>
</g>
</svg>
