<svg xmlns="http://www.w3.org/2000/svg" xmlns:xlink="http://www.w3.org/1999/xlink" width="114.937" height="23.578" viewBox="0 0 114.937 23.578">
  <defs>
    <linearGradient id="linear-gradient" x1="23.143" y1="0.232" x2="25.015" y2="2.004" gradientUnits="objectBoundingBox">
      <stop offset="0" stop-color="#43425d"/>
      <stop offset="1" stop-color="#fff" stop-opacity="0"/>
    </linearGradient>
    <linearGradient id="linear-gradient-2" x1="22.39" y1="1.028" x2="24.218" y2="2.817" xlink:href="#linear-gradient"/>
    <linearGradient id="linear-gradient-3" x1="34.262" y1="-21.525" x2="36.132" y2="-19.75" xlink:href="#linear-gradient"/>
    <linearGradient id="linear-gradient-4" x1="32.185" y1="-20.705" x2="34.009" y2="-18.914" xlink:href="#linear-gradient"/>
  </defs>
  <g id="Group_277" data-name="Group 277" transform="translate(-19.836 -21.477)">
    <text id="Logo" transform="translate(48.772 38.453)" fill="#43425d" font-size="16" font-family="SourceSansPro-Bold, Source Sans Pro" font-weight="700" letter-spacing="0.2em"><tspan x="0" y="0">BUDGETY</tspan></text>
    <path id="Path_359" data-name="Path 359" d="M39.445,11.851,36.878,14.4,25.106,2.595l2.55-2.55Z" transform="translate(3.985 21.432)" fill="url(#linear-gradient)"/>
    <path id="Path_360" data-name="Path 360" d="M14.339,36.867l-2.566,2.55L0,27.611l2.55-2.55Z" transform="translate(19.836 5.638)" fill="url(#linear-gradient-2)"/>
    <path id="Path_361" data-name="Path 361" d="M11.806.045l2.55,2.55L2.55,14.367,0,11.817Z" transform="translate(19.836 21.432)" fill="url(#linear-gradient-3)"/>
    <path id="Path_362" data-name="Path 362" d="M36.838,25.106l2.55,2.566L27.566,39.445l-2.55-2.55Z" transform="translate(4.042 5.61)" fill="url(#linear-gradient-4)"/>
  </g>
</svg>
