<?xml version="1.0" encoding="utf-8"?>
<!-- Generator: Adobe Illustrator 21.0.0, SVG Export Plug-In . SVG Version: 6.00 Build 0)  -->
<svg version="1.1" id="Livello_1" xmlns="http://www.w3.org/2000/svg" xmlns:xlink="http://www.w3.org/1999/xlink" x="0px" y="0px"
	 viewBox="0 0 64 64" style="enable-background:new 0 0 64 64;" xml:space="preserve">
<style type="text/css">
	.st0{fill:#A38671;}
	.st1{fill:#FFFFFF;}
</style>
<circle class="st0" cx="32" cy="32" r="27.6"/>
<g>
	<g>
		<path class="st1" d="M36.5,33.8c2.2-2.8,6.9-9.6,7.8-11.6c0.6-1.5,0.9-2.8,0.9-4c0-1.5-0.5-2.5-1.6-3.5c-0.4-0.4-1.2-0.6-1.7-0.6
			L32,27.3l-0.9,1.2l-0.2,0.3l0,0l-1.2,1.7c0,0,0,0,0,0c0,0.1-0.6,0.9-1.3,2c-0.3,0.4-0.5,0.8-0.8,1.2c-0.3,0.5-0.6,0.9-0.8,1.3
			c-0.3,0.6-0.6,1.2-0.9,1.8c-0.3,0.6-0.6,1.3-0.9,1.8c-0.9-0.6-1.9-1-3-1c-1.5,0-2.9,0.7-3.9,1.9c-1,1.1-1.5,2.6-1.5,4.2
			s0.6,3.1,1.5,4.2c1,1.2,2.4,1.9,3.9,1.9c1.2,0,2.4-0.4,3.4-1.3c0.9-0.8,1.5-1.8,1.9-3c0.1-0.3,1-3,2.2-4.9c0.8-1.2,1.9-2,2.5-2.4
			l1.2-0.8C33.2,37.4,34.3,36.7,36.5,33.8z M22,46.2c-1.1,0-2.1-1.1-2.1-2.4c0-1.3,0.9-2.4,2.1-2.4s2.1,1.1,2.1,2.4
			C24.1,45.1,23.2,46.2,22,46.2z M32,34.8c-0.8,0-1.4-0.6-1.4-1.4c0-0.8,0.6-1.4,1.4-1.4c0.8,0,1.4,0.6,1.4,1.4
			C33.4,34.1,32.8,34.8,32,34.8z"/>
	</g>
	<path class="st1" d="M26.5,32.4c0.1,0.1,0.1,0.2,0.2,0.2c0.1-0.2,0.3-0.5,0.5-0.7l4-5.7l-9-12.1c-0.8,0-1.2,0.1-1.6,0.3
		c-1,0.8-1.6,2.2-1.7,3.8c0,1.2,0.3,2.5,0.9,4C20.5,24,23.4,28.2,26.5,32.4z M42,37.7c-1.1,0-2.1,0.3-3,1c-0.3-0.5-0.6-1.1-0.9-1.8
		c-0.3-0.6-0.6-1.2-0.9-1.8l-0.9,1.2l-3.1,2.8c0.4,0.4,0.9,0.9,1.3,1.5c1.2,1.9,2.2,4.7,2.2,4.9c0.3,1.2,1,2.3,1.9,3
		c1,0.8,2.1,1.3,3.4,1.3c3,0,5.5-2.7,5.5-6.1S45,37.7,42,37.7z M42,46.2c-1.1,0-2.1-1.1-2.1-2.4c0-1.3,0.9-2.4,2.1-2.4
		c1.1,0,2.1,1.1,2.1,2.4C44.1,45.1,43.1,46.2,42,46.2z"/>
</g>
</svg>
