<?xml version="1.0" encoding="utf-8"?>
<!-- Generator: Adobe Illustrator 18.0.0, SVG Export Plug-In . SVG Version: 6.00 Build 0)  -->
<!DOCTYPE svg PUBLIC "-//W3C//DTD SVG 1.1//EN" "http://www.w3.org/Graphics/SVG/1.1/DTD/svg11.dtd">
<svg version="1.1" id="Livello_1" xmlns="http://www.w3.org/2000/svg" xmlns:xlink="http://www.w3.org/1999/xlink" x="0px" y="0px"
	 viewBox="0 0 64 64" enable-background="new 0 0 64 64" xml:space="preserve">
<circle fill="#FF9797" stroke="#F24040" stroke-width="3" stroke-miterlimit="10" cx="32" cy="32.1" r="27.6"/>
<path fill="#F23636" d="M32,15.3c-7.1,0-14.2,0.9-14.2,7.1v16.8c0,3.4,2.8,6.2,6.2,6.2l-2.7,2.7V49h4l3.6-3.5h6.7l3.6,3.5h3.6v-0.9
	L40,45.4c3.4,0,6.2-2.8,6.2-6.2V22.4C46.2,16.2,39.9,15.3,32,15.3z M24,41.9c-1.5,0-2.7-1.2-2.7-2.7s1.2-2.7,2.7-2.7
	s2.7,1.2,2.7,2.7S25.5,41.9,24,41.9z M30.2,29.5h-8.9v-7.1h8.9C30.2,22.4,30.2,29.5,30.2,29.5z M33.8,29.5v-7.1h8.9v7.1
	C42.7,29.5,33.8,29.5,33.8,29.5z M40,41.9c-1.5,0-2.7-1.2-2.7-2.7s1.2-2.7,2.7-2.7s2.7,1.2,2.7,2.7S41.5,41.9,40,41.9z"/>
</svg>
