<?xml version="1.0" encoding="utf-8"?>
<!-- Generator: Adobe Illustrator 21.0.0, SVG Export Plug-In . SVG Version: 6.00 Build 0)  -->
<svg version="1.1" id="Livello_1" xmlns="http://www.w3.org/2000/svg" xmlns:xlink="http://www.w3.org/1999/xlink" x="0px" y="0px"
	 viewBox="0 0 64 64" style="enable-background:new 0 0 64 64;" xml:space="preserve">
<style type="text/css">
	.st0{fill:#FFCD02;}
	.st1{fill:#FFFFFF;}
</style>
<circle class="st0" cx="32" cy="32.1" r="27.6"/>
<g>
	<path class="st1" d="M47.5,39.5h-31c-0.6,0-1,0.5-1,1c0,0.6,0.5,1,1,1h31c0.6,0,1-0.5,1-1C48.5,39.9,48.1,39.5,47.5,39.5z M47.5,43
		h-31c-0.6,0-1,0.5-1,1s0.5,1,1,1h31c0.6,0,1-0.5,1-1S48.1,43,47.5,43z M45.9,19.1H18.1c-1.4,0-2.6,1.2-2.6,2.6v13.1
		c0,1.4,1.2,2.6,2.6,2.6h27.9c1.4,0,2.6-1.2,2.6-2.6V21.7C48.5,20.3,47.4,19.1,45.9,19.1z M21.5,35.1h-2.7c-0.6,0-1-0.5-1-1
		c0-0.6,0.5-1,1-1h2.7c0.6,0,1,0.5,1,1C22.6,34.6,22.1,35.1,21.5,35.1z M21.5,23.6h-2.7c-0.6,0-1-0.5-1-1c0-0.6,0.5-1,1-1h2.7
		c0.6,0,1,0.5,1,1C22.6,23.1,22.1,23.6,21.5,23.6z M32,34.2c-3.3,0-5.9-2.6-5.9-5.9s2.6-5.9,5.9-5.9s5.9,2.6,5.9,5.9
		S35.3,34.2,32,34.2z M45.1,35.1h-2.7c-0.6,0-1-0.5-1-1c0-0.6,0.5-1,1-1h2.7c0.6,0,1,0.5,1,1C46.2,34.6,45.7,35.1,45.1,35.1z
		 M45.1,23.6h-2.7c-0.6,0-1-0.5-1-1c0-0.6,0.5-1,1-1h2.7c0.6,0,1,0.5,1,1C46.2,23.1,45.7,23.6,45.1,23.6z"/>
	<circle class="st1" cx="32" cy="28.4" r="3.9"/>
</g>
</svg>
