<?xml version="1.0" encoding="utf-8"?>
<!-- Generator: Adobe Illustrator 21.0.0, SVG Export Plug-In . SVG Version: 6.00 Build 0)  -->
<svg version="1.1" id="Livello_1" xmlns="http://www.w3.org/2000/svg" xmlns:xlink="http://www.w3.org/1999/xlink" x="0px" y="0px"
	 viewBox="0 0 64 64" style="enable-background:new 0 0 64 64;" xml:space="preserve">
<style type="text/css">
	.st0{fill:#EF717A;}
	.st1{fill:#FFFFFF;}
</style>
<circle class="st0" cx="32" cy="32.1" r="27.6"/>
<g>
	<path class="st1" d="M17.5,24.9l13.3,6.4c0.3,0.2,0.8,0.3,1.3,0.3s0.9-0.1,1.3-0.3l13.3-6.4c0.7-0.3,0.7-0.9,0-1.2l-13.3-6.4
		C32.9,17.1,32.5,17,32,17c-0.5,0-0.9,0.1-1.3,0.3l-13.3,6.4C16.8,24,16.8,24.6,17.5,24.9z"/>
	<path class="st1" d="M46.5,31.5c0,0-2.4-1.2-2.7-1.3s-0.4-0.1-0.7,0c-0.3,0.2-9.8,4.7-9.8,4.7c-0.4,0.2-0.8,0.3-1.3,0.3
		c-0.5,0-0.9-0.1-1.3-0.3c0,0-9.2-4.4-9.6-4.6c-0.5-0.2-0.6-0.2-1,0l-2.6,1.3c-0.7,0.3-0.7,0.9,0,1.2l13.3,6.4
		c0.3,0.2,0.8,0.3,1.3,0.3c0.5,0,0.9-0.1,1.3-0.3l13.3-6.4C47.2,32.4,47.2,31.8,46.5,31.5L46.5,31.5z"/>
	<path class="st1" d="M46.5,39.3c0,0-2.4-1.2-2.7-1.3c-0.3-0.2-0.4-0.1-0.7,0c-0.3,0.2-9.8,4.7-9.8,4.7c-0.4,0.2-0.8,0.3-1.3,0.3
		c-0.5,0-0.9-0.1-1.3-0.3c0,0-9.2-4.4-9.6-4.6c-0.5-0.2-0.6-0.2-1,0l-2.6,1.3c-0.7,0.3-0.7,0.9,0,1.2l13.3,6.4
		c0.3,0.2,0.8,0.3,1.3,0.3c0.5,0,0.9-0.1,1.3-0.3l13.3-6.4C47.2,40.2,47.2,39.6,46.5,39.3L46.5,39.3z"/>
</g>
</svg>
