<?xml version="1.0" encoding="utf-8"?>
<!-- Generator: Adobe Illustrator 21.0.0, SVG Export Plug-In . SVG Version: 6.00 Build 0)  -->
<svg version="1.1" id="Livello_1" xmlns="http://www.w3.org/2000/svg" xmlns:xlink="http://www.w3.org/1999/xlink" x="0px" y="0px"
	 viewBox="0 0 64 64" style="enable-background:new 0 0 64 64;" xml:space="preserve">
<style type="text/css">
	.st0{fill:#3498DB;}
	.st1{fill:#FFFFFF;}
</style>
<circle class="st0" cx="32" cy="32" r="27.6"/>
<path class="st1" d="M52.8,2.9c-1.1,0-1.9,0.9-1.9,1.9s0.9,1.9,1.9,1.9c1.1,0,1.9-0.9,1.9-1.9S53.9,2.9,52.8,2.9z"/>
<path class="st1" d="M23.9,17.9c4,0,7.4,2.1,7.4,6V46c0,0.2-0.2,0.2-0.3,0.1v0c-0.8-2.5-2.8-5-6.1-5.2c-2.5-0.2-4.9,1-6.9,2.7
	c-0.1,0.1-0.3,0.2-0.5,0.2h-0.3c-0.3,0-0.6-0.2-0.6-0.4V22C16.7,19.6,19.9,17.9,23.9,17.9z M40.1,17.9c-4,0-7.4,2.1-7.4,6V46
	c0,0.2,0.2,0.2,0.3,0.1v0c0.8-2.5,2.9-5,6.1-5.2c2.4-0.1,4.7,0.8,6.9,2.7c0.1,0.1,0.3,0.2,0.5,0.2h0.3c0.3,0,0.6-0.2,0.6-0.4V22
	C47.3,19.6,44.1,17.9,40.1,17.9z"/>
</svg>
