<?xml version="1.0" encoding="utf-8"?>
<!-- Generator: Adobe Illustrator 21.0.0, SVG Export Plug-In . SVG Version: 6.00 Build 0)  -->
<svg version="1.1" id="Livello_1" xmlns="http://www.w3.org/2000/svg" xmlns:xlink="http://www.w3.org/1999/xlink" x="0px" y="0px"
	 viewBox="0 0 64 64" style="enable-background:new 0 0 64 64;" xml:space="preserve">
<style type="text/css">
	.st0{fill:#9B59B6;}
	.st1{fill:#FFFFFF;}
</style>
<circle class="st0" cx="32" cy="32.1" r="27.6"/>
<path class="st1" d="M44.2,27.5c-1.1-2.3-3.7-7-7.6-7h-9.1c-3.9,0-6.5,4.5-7.6,7C18,29.3,16.2,31,16.2,34v5.8c0,0.3,0.2,0.5,0.5,0.6
	c1.1,0.3,4.7,0.8,15.4,0.8s14.2-0.5,15.4-0.8c0.3-0.1,0.5-0.3,0.5-0.6V34C47.8,31,46.1,29.2,44.2,27.5z M27,22.4h10
	c3.1,0,4.7,4.6,4.7,5.3H22.3C22.3,26.9,24.3,22.4,27,22.4z M21,37.9c-1.3,0-2.4-1.1-2.4-2.4c0-1.3,1.1-2.4,2.4-2.4
	c1.3,0,2.4,1.1,2.4,2.4C23.5,36.8,22.4,37.9,21,37.9z M37.5,35.4c0,0.7-0.5,1.2-1.2,1.2h-8.5c-0.7,0-1.2-0.5-1.2-1.2
	s0.5-1.2,1.2-1.2h8.5C36.9,34.2,37.5,34.8,37.5,35.4z M43,37.9c-1.3,0-2.4-1.1-2.4-2.4c0-1.3,1.1-2.4,2.4-2.4c1.3,0,2.4,1.1,2.4,2.4
	C45.4,36.8,44.3,37.9,43,37.9z M24.7,41.8c-3.6,0-7.3-0.4-7.3-0.4c0,1.3,0,2.2,0.5,2.2h6.5C24.8,43.7,24.7,42.7,24.7,41.8z
	 M39.3,41.8c3.7,0,7.3-0.4,7.3-0.4c0,1.2,0.2,2.2-0.4,2.2h-6.5C39.2,43.7,39.3,42.6,39.3,41.8z"/>
</svg>
