<?xml version="1.0" encoding="utf-8"?>
<!-- Generator: Adobe Illustrator 21.0.0, SVG Export Plug-In . SVG Version: 6.00 Build 0)  -->
<svg version="1.1" id="Livello_1" xmlns="http://www.w3.org/2000/svg" xmlns:xlink="http://www.w3.org/1999/xlink" x="0px" y="0px"
	 viewBox="0 0 64 64" style="enable-background:new 0 0 64 64;" xml:space="preserve">
<style type="text/css">
	.st0{fill:#EF717A;}
	.st1{fill:#FFFFFF;}
</style>
<circle class="st0" cx="32" cy="32" r="27.6"/>
<g>
	<path class="st1" d="M29,44.8l0.4,1.3c0,0.1,0.2,0.2,0.3,0.1l0.6-0.4c0.2-0.1,0.2-0.4,0-0.6l-1-0.6C29.1,44.5,29,44.6,29,44.8
		L29,44.8z M34.6,46l0.4-1.3c0.1-0.2-0.1-0.3-0.3-0.2l-1,0.6c-0.2,0.1-0.2,0.3-0.1,0.5c0,0,0.1,0.1,0.1,0.1l0.6,0.4
		C34.5,46.2,34.6,46.2,34.6,46L34.6,46z M26.3,30.8c-0.3,0.3-0.8,0.5-1.3,0.7c-0.1,0-0.1,0.1-0.1,0.2l0.8,2.5l0.3,1
		c0,0.1,0.2,0.2,0.3,0.1l0.6-0.4l3.1-1.9c0.3-0.2,0.2-0.6-0.1-0.6c-1.2-0.3-2.3-0.8-3.1-1.6C26.6,30.7,26.4,30.7,26.3,30.8
		L26.3,30.8z M26.6,36.7l-0.2,0.1l1.2,3.9c0,0.1,0.2,0.2,0.3,0.1l2.3-1.4c0.2-0.1,0.2-0.4,0-0.6l-3.3-2
		C26.9,36.6,26.7,36.6,26.6,36.7L26.6,36.7z M32.2,39.9c-0.1-0.1-0.2-0.1-0.4,0l-3.6,2.2l0,0c-0.1,0.1-0.1,0.2,0,0.3l0.1,0l3.5,2.2
		c0.1,0.1,0.2,0.1,0.4,0l3.6-2.2l0,0c0.1-0.1,0.1-0.2,0-0.3L32.2,39.9L32.2,39.9z M35.5,35.5l-3.3-2c-0.1-0.1-0.2-0.1-0.4,0l-3.3,2
		c-0.2,0.1-0.2,0.3-0.1,0.5c0,0,0.1,0.1,0.1,0.1l3.3,2c0.1,0.1,0.2,0.1,0.4,0l3.3-2C35.7,35.9,35.7,35.6,35.5,35.5z M37.3,30.8
		c-0.8,0.7-1.9,1.3-3.1,1.6c-0.3,0.1-0.4,0.5-0.1,0.6l3.1,1.9l0.6,0.4c0.1,0.1,0.2,0,0.3-0.1l0.3-1.1l0.8-2.6
		c-0.6-0.2-1.2-0.5-1.5-0.8C37.6,30.7,37.4,30.7,37.3,30.8L37.3,30.8z M30,47.8l0.1,0.4c0,0,0.6,1.6,1.9,1.6c1.3,0,1.9-1.6,1.9-1.6
		l0.1-0.4c0.1-0.1,0-0.3-0.1-0.4l-1.7-1.1c-0.1-0.1-0.2-0.1-0.4,0l-1.7,1C30,47.5,30,47.7,30,47.8L30,47.8z M33.8,39.3l2.3,1.5
		c0.1,0.1,0.2,0,0.3-0.1l1.2-3.7c0-0.1,0-0.2-0.1-0.2l-0.1-0.1c-0.1-0.1-0.2-0.1-0.4,0l-3.3,2C33.6,38.8,33.6,39.2,33.8,39.3z"/>
	<path class="st1" d="M42.2,24.5c-0.5,0.5-1.1,0.7-1.5,0.9c-0.2,0.1-0.3-0.1-0.2-0.3l0.3-0.5c0.5-0.7,0.7-1.7,0.6-2.5
		c-0.7-4.5-4.7-8-9.4-8s-8.7,3.5-9.4,8.1c-0.1,0.9,0.1,1.8,0.6,2.5l0.3,0.5c0.1,0.1,0,0.3-0.2,0.3c-0.5-0.2-1.1-0.5-1.7-1.1
		c-0.1-0.1-0.3-0.1-0.4,0c-0.9,0.6-1.4,1.6-1.4,2.8c0,1.9,1.5,3.4,3.4,3.4c1,0,2.4-0.4,3.1-1c0.1-0.1,0.3-0.1,0.5,0
		c1.3,1.1,3.1,1.7,5.3,1.7s4-0.6,5.3-1.7c0.1-0.1,0.3-0.1,0.5,0c0.7,0.6,2.2,1,3.1,1c1.9,0,3.4-1.5,3.4-3.4c0-1-0.4-1.9-1.1-2.6
		C42.9,24.3,42.5,24.3,42.2,24.5L42.2,24.5z"/>
</g>
</svg>
