<?xml version="1.0" encoding="utf-8"?>
<!-- Generator: Adobe Illustrator 21.0.0, SVG Export Plug-In . SVG Version: 6.00 Build 0)  -->
<svg version="1.1" id="Livello_1" xmlns="http://www.w3.org/2000/svg" xmlns:xlink="http://www.w3.org/1999/xlink" x="0px" y="0px"
	 viewBox="0 0 64 64" style="enable-background:new 0 0 64 64;" xml:space="preserve">
<style type="text/css">
	.st0{fill:#BDC3C7;}
	.st1{fill:#FFFFFF;}
</style>
<circle class="st0" cx="32" cy="32" r="27.6"/>
<path class="st1" d="M50,26.1c0.1-0.1,0.1-0.3,0-0.5c-1-1.1-5.3-5.6-7.8-7.3c-1.8-1.3-3.5-2.5-5.5-2.5s-1.9,0.7-4.7,0.7
	s-2.8-0.7-4.7-0.7s-3.7,1.2-5.5,2.5c-2.4,1.7-6.8,6.2-7.8,7.3c-0.1,0.1-0.1,0.3,0,0.5l5.4,5.6c0.2,0.3,0.6,0.1,0.6-0.2v-3.9
	c0-0.4,0.3-0.7,0.7-0.8c0.5-0.1,0.9,0.3,0.9,0.8v21.1c0,0.4,0.3,0.7,0.7,0.7h19.4c0.4,0,0.7-0.3,0.7-0.7V27.5c0-0.4,0.3-0.7,0.7-0.8
	c0.5-0.1,0.9,0.3,0.9,0.8v3.9c0,0.3,0.4,0.5,0.6,0.2L50,26.1L50,26.1z M32,22.7c-2.6,0-4.7-1.1-4.7-3.1c0-2.6,2.1-0.9,4.7-0.9
	c2.6,0,4.7-1.7,4.7,0.9C36.7,21.6,34.6,22.7,32,22.7z"/>
</svg>
