<?xml version="1.0" encoding="utf-8"?>
<!-- Generator: Adobe Illustrator 18.0.0, SVG Export Plug-In . SVG Version: 6.00 Build 0)  -->
<!DOCTYPE svg PUBLIC "-//W3C//DTD SVG 1.1//EN" "http://www.w3.org/Graphics/SVG/1.1/DTD/svg11.dtd">
<svg version="1.1" id="Livello_1" xmlns="http://www.w3.org/2000/svg" xmlns:xlink="http://www.w3.org/1999/xlink" x="0px" y="0px"
	 viewBox="0 0 64 64" enable-background="new 0 0 64 64" xml:space="preserve">
<circle fill="#FF9797" stroke="#F24040" stroke-width="3" stroke-miterlimit="10" cx="32" cy="32" r="27.6"/>
<g>
	<path fill="#F23636" d="M34.4,28.9c-0.3-0.6-1-0.8-1.8-0.8v0c-0.4,0-1,0.1-1.6,0.2c-0.9,0.2-1.4,0.5-1.4,0.5s0.3,2,0,4.3
		c-0.3,2.3-0.6,3.1-0.6,3.1s0.4,0.9,2.9,1.1c0.3,0,0.6,0,0.8,0c1.8,0,2.7-0.5,2.7-0.5s0.2-0.4,0.3-1.6
		C35.8,32.8,35.1,30.2,34.4,28.9z M28.2,28.6c-1.6-2.9-6.3-7-8.8-7c-1.9,0-3.8,5-3.8,10.5s1.7,10.5,3.8,10.5c2.4,0,8-5.8,8-5.8
		s0.4-0.9,0.7-2.4l0.1-0.8c0.1-0.3,0.1-0.7,0.1-1.1c0-0.3,0-0.5,0-0.7l0-0.7C28.5,29.8,28.2,28.6,28.2,28.6z M44.4,21.5
		c-2.7,0-7,4.1-8.6,7l-0.1,0.1c0,0,0.1,0.2,0.1,0.2c0.2,0.4,0.5,1,0.7,1.7l0.2,0.9c0.2,0.7,0.3,1.5,0.3,2.3l0,0.7c0,0.2,0,0.4,0,0.6
		c-0.1,1.2-0.3,1.6-0.3,1.6c0.6,0.8,5,5.7,7.7,5.7c2.1,0,3.8-5,3.8-10.5S46.3,21.5,44.4,21.5z"/>
</g>
</svg>
