<?xml version="1.0" encoding="utf-8"?>
<!-- Generator: Adobe Illustrator 21.0.0, SVG Export Plug-In . SVG Version: 6.00 Build 0)  -->
<svg version="1.1" id="Livello_1" xmlns="http://www.w3.org/2000/svg" xmlns:xlink="http://www.w3.org/1999/xlink" x="0px" y="0px"
	 viewBox="0 0 64 64" style="enable-background:new 0 0 64 64;" xml:space="preserve">
<style type="text/css">
	.st0{fill:#E74C3C;}
	.st1{fill:#FFFFFF;}
</style>
<circle class="st0" cx="32" cy="32" r="27.6"/>
<g>
	<path class="st1" d="M21,24.8c0-1,0.8-1.8,1.8-1.8h17.6c0.4,0,0.7,0.1,1,0.3c0.2,0.1,0.4,0,0.4-0.2c0-0.4,0-0.7,0-1.7
		c0-1.6-1.3-2.9-2.9-2.9h0c-0.4,0-0.8-0.3-1-0.7c-0.7-1.7-2.5-3-4.3-3c-1.6,0-2.6,0.5-3.4,1.4c-0.3,0.4-0.9,0.5-1.3,0.2
		c-0.6-0.4-1.2-0.5-2-0.5c-1.1,0-2.1,0.5-2.7,1.3c-0.3,0.4-0.8,0.5-1.3,0.5c-0.4-0.1-1-0.1-1.7-0.1c-1.9,0-3.8,1.3-3.8,3.3v0.3
		c0,2.2,1.2,1.8,1.2,3.2v3.9c0,1-0.9,1.5-0.9,2.7c0,0.7,0.6,1.3,1.3,1.3h2V24.8z M42,47H20.8c-0.6,0-1.1,0.5-1.1,1.1
		s0.5,1.1,1.1,1.1H42c0.6,0,1.1-0.5,1.1-1.1S42.6,47,42,47z"/>
	<path class="st1" d="M43,27.2h-2.5v-1.8c0-0.7-0.6-1.2-1.2-1.2h-16c-0.7,0-1.2,0.6-1.2,1.2v16.4c0,0.9-0.1,1.4-0.2,2.3l0,0
		c-0.1,0.4,0,0.7,0.2,1c0.3,0.4,0.7,0.6,1.2,0.6h16.4c0.3,0,0.6-0.1,0.9-0.3c0.4-0.3,0.5-0.8,0.4-1.2c-0.2-0.9-0.3-1.4-0.4-2.3H43
		c2,0,3.7-1.7,3.7-3.7v-7.4C46.7,28.9,45.1,27.2,43,27.2z M44.6,38.3c0,0.8-0.7,1.5-1.5,1.5h-2.5V29.4H43c0.8,0,1.5,0.7,1.5,1.5
		V38.3z"/>
</g>
</svg>
