<?xml version="1.0" encoding="utf-8"?>
<!-- Generator: Adobe Illustrator 21.0.0, SVG Export Plug-In . SVG Version: 6.00 Build 0)  -->
<svg version="1.1" id="Livello_1" xmlns="http://www.w3.org/2000/svg" xmlns:xlink="http://www.w3.org/1999/xlink" x="0px" y="0px"
	 viewBox="0 0 64 64" style="enable-background:new 0 0 64 64;" xml:space="preserve">
<style type="text/css">
	.st0{fill:#3A6F81;}
	.st1{fill:#FFFFFF;}
</style>
<circle class="st0" cx="32" cy="32" r="27.6"/>
<path class="st1" d="M52.8,2.9c-1.1,0-1.9,0.9-1.9,1.9s0.9,1.9,1.9,1.9c1.1,0,1.9-0.9,1.9-1.9S53.9,2.9,52.8,2.9z"/>
<path class="st1" d="M44.4,16h-1.7c1.2,0.5,1.9,1.7,1.9,3.6v24.9c0,1.8-0.6,3.1-1.9,3.6h1.7c2,0,3.6-1.6,3.6-3.6V19.6
	C48,17.6,46.4,16,44.4,16z M39.5,16c-0.1,0-0.2,0-0.3,0H19.6c-2,0-3.6,1.6-3.6,3.6v24.9c0,2,1.6,3.6,3.6,3.6h19.5c0.1,0,0.2,0,0.3,0
	c1.8-0.2,3.2-1.7,3.2-3.5V19.6C42.7,17.7,41.2,16.2,39.5,16z M28,32l-4.7-2.7L18.7,32V18.7H28V32z"/>
</svg>
