<?xml version="1.0" encoding="utf-8"?>
<!-- Generator: Adobe Illustrator 21.0.0, SVG Export Plug-In . SVG Version: 6.00 Build 0)  -->
<svg version="1.1" id="Livello_1" xmlns="http://www.w3.org/2000/svg" xmlns:xlink="http://www.w3.org/1999/xlink" x="0px" y="0px"
	 viewBox="0 0 64 64" style="enable-background:new 0 0 64 64;" xml:space="preserve">
<style type="text/css">
	.st0{fill:#B8C9F1;}
	.st1{fill:#FFFFFF;}
</style>
<circle class="st0" cx="32" cy="32" r="27.6"/>
<path class="st1" d="M44.6,32c0-4-1.9-7.5-4.8-9.8l-1.5-9H25.7l-1.5,9c-2.9,2.3-4.8,5.8-4.8,9.8c0,4,1.9,7.5,4.8,9.8l1.5,9h12.6
	l1.5-9C42.7,39.5,44.6,36,44.6,32z M22.6,32c0-5.2,4.2-9.4,9.4-9.4s9.4,4.2,9.4,9.4c0,5.2-4.2,9.4-9.4,9.4S22.6,37.2,22.6,32z"/>
</svg>
