<?xml version="1.0" encoding="utf-8"?>
<!-- Generator: Adobe Illustrator 21.0.0, SVG Export Plug-In . SVG Version: 6.00 Build 0)  -->
<svg version="1.1" id="Livello_1" xmlns="http://www.w3.org/2000/svg" xmlns:xlink="http://www.w3.org/1999/xlink" x="0px" y="0px"
	 viewBox="0 0 64 64" style="enable-background:new 0 0 64 64;" xml:space="preserve">
<style type="text/css">
	.st0{fill:#3498DB;}
	.st1{fill:#FFFFFF;}
</style>
<circle class="st0" cx="32" cy="32" r="27.6"/>
<path class="st1" d="M32,15.3c-9.2,0-16.7,7.5-16.7,16.7S22.8,48.7,32,48.7S48.7,41.2,48.7,32S41.2,15.3,32,15.3z M37.8,27.5
	c1.1,0,1.9,0.9,1.9,1.9c0,1.1-0.9,1.9-1.9,1.9s-1.9-0.9-1.9-1.9C35.8,28.4,36.7,27.5,37.8,27.5z M26.2,27.5c1.1,0,1.9,0.9,1.9,1.9
	c0,1.1-0.9,1.9-1.9,1.9c-1.1,0-1.9-0.9-1.9-1.9C24.3,28.4,25.2,27.5,26.2,27.5z M32,41.1c-3.6,0-6.6-2.4-7.5-5.7
	c-0.1-0.4,0.2-0.8,0.6-0.8h13.9c0.4,0,0.7,0.4,0.6,0.8C38.6,38.7,35.6,41.1,32,41.1z"/>
</svg>
