<?xml version="1.0" encoding="utf-8"?>
<!-- Generator: Adobe Illustrator 18.0.0, SVG Export Plug-In . SVG Version: 6.00 Build 0)  -->
<!DOCTYPE svg PUBLIC "-//W3C//DTD SVG 1.1//EN" "http://www.w3.org/Graphics/SVG/1.1/DTD/svg11.dtd">
<svg version="1.1" id="Livello_1" xmlns="http://www.w3.org/2000/svg" xmlns:xlink="http://www.w3.org/1999/xlink" x="0px" y="0px"
	 viewBox="0 0 64 64" enable-background="new 0 0 64 64" xml:space="preserve">
<g>
	<circle fill="#A2EF70" stroke="#59B71C" stroke-width="3" stroke-miterlimit="10" cx="31.4" cy="32" r="27.6"/>
</g>
<path fill="#59B71C" d="M46.3,39.3H16.5c-0.5,0-1,0.4-1,1s0.4,1,1,1h29.8c0.5,0,1-0.4,1-1S46.9,39.3,46.3,39.3z M46.3,42.7H16.5
	c-0.5,0-1,0.4-1,1s0.4,1,1,1h29.8c0.5,0,1-0.4,1-1S46.9,42.7,46.3,42.7z M44.8,19.7H18c-1.4,0-2.5,1.1-2.5,2.5v12.6
	c0,1.4,1.1,2.5,2.5,2.5h26.8c1.4,0,2.5-1.1,2.5-2.5V22.2C47.3,20.8,46.2,19.7,44.8,19.7z M21.4,35h-2.6c-0.5,0-1-0.4-1-1s0.4-1,1-1
	h2.6c0.5,0,1,0.4,1,1S21.9,35,21.4,35z M21.4,24h-2.6c-0.5,0-1-0.4-1-1c0-0.5,0.4-1,1-1h2.6c0.5,0,1,0.4,1,1
	C22.3,23.5,21.9,24,21.4,24z M31.4,34.2c-3.1,0-5.7-2.5-5.7-5.7s2.5-5.7,5.7-5.7s5.7,2.5,5.7,5.7S34.6,34.2,31.4,34.2z M44.1,35
	h-2.6c-0.5,0-1-0.4-1-1s0.4-1,1-1h2.6c0.5,0,1,0.4,1,1S44.6,35,44.1,35z M44.1,24h-2.6c-0.5,0-1-0.4-1-1c0-0.5,0.4-1,1-1h2.6
	c0.5,0,1,0.4,1,1C45.1,23.5,44.6,24,44.1,24z"/>
<circle fill="#59B71C" cx="31.4" cy="28.7" r="3.8"/>
</svg>
