<?xml version="1.0" encoding="utf-8"?>
<!-- Generator: Adobe Illustrator 21.0.0, SVG Export Plug-In . SVG Version: 6.00 Build 0)  -->
<svg version="1.1" id="Livello_1" xmlns="http://www.w3.org/2000/svg" xmlns:xlink="http://www.w3.org/1999/xlink" x="0px" y="0px"
	 viewBox="0 0 64 64" style="enable-background:new 0 0 64 64;" xml:space="preserve">
<style type="text/css">
	.st0{fill:#5065A1;}
	.st1{fill:#FFFFFF;}
</style>
<circle class="st0" cx="32" cy="32" r="27.6"/>
<g>
	<path class="st1" d="M43.5,22.4C40,21,36.1,20.3,32,20.3c-4.1,0-8.3,0.8-11.5,2.1c-0.6,0.3-1.2,0.7-0.8,1.5
		C20.1,24.7,32,49.1,32,49.1l12.3-25.1C44.5,23.4,44.3,22.8,43.5,22.4L43.5,22.4z M26.7,28c-1.4,0-2.4-1.1-2.4-2.4
		c0-1.3,1-2.4,2.4-2.4c1.4,0,2.4,1.1,2.4,2.4C29.1,26.9,28.1,28,26.7,28z M32,38.9c-1.4,0-2.4-1.1-2.4-2.4c0-1.3,1-2.4,2.4-2.4
		c1.4,0,2.4,1.1,2.4,2.4C34.4,37.8,33.4,38.9,32,38.9z M37.3,29.6c-1.4,0-2.4-1.1-2.4-2.4c0-1.3,1-2.4,2.4-2.4
		c1.4,0,2.4,1.1,2.4,2.4C39.8,28.5,38.7,29.6,37.3,29.6z"/>
	<path class="st1" d="M45.8,17.5c-4-1.6-8.9-2.6-13.8-2.6s-9.7,0.9-13.8,2.5c-0.4,0.1-0.8,0.4-0.8,1.1l0.7,1.8
		c0.2,0.4,0.7,0.6,1.2,0.6c0.1,0,0.3,0,0.6-0.1c3.7-1.4,7.9-2.3,12.2-2.3s8.8,0.9,12.2,2.3c0.3,0.1,0.4,0.1,0.6,0.1
		c0.5,0,0.9-0.3,1.1-0.6l0.7-1.8C46.6,18,46.3,17.7,45.8,17.5z"/>
</g>
</svg>
