<?xml version="1.0" encoding="utf-8"?>
<!-- Generator: Adobe Illustrator 21.0.0, SVG Export Plug-In . SVG Version: 6.00 Build 0)  -->
<svg version="1.1" id="Livello_1" xmlns="http://www.w3.org/2000/svg" xmlns:xlink="http://www.w3.org/1999/xlink" x="0px" y="0px"
	 viewBox="0 0 64 64" style="enable-background:new 0 0 64 64;" xml:space="preserve">
<style type="text/css">
	.st0{fill:#FFCD02;}
	.st1{fill:#FFFFFF;}
</style>
<circle class="st0" cx="32" cy="32" r="27.6"/>
<path class="st1" d="M45.4,23.2H39c0.9-0.8,1.5-2,1.5-3.3c0-2.5-2.1-4.6-4.8-4.6c-1.6,0-2.9,0.7-3.7,2.1c-0.8-1.3-2.1-2.1-3.7-2.1
	c-2.6,0-4.8,2-4.8,4.6c0,1.3,0.6,2.5,1.5,3.3h-6.4c-1.3,0-2.4,1.1-2.4,2.4v1.5c0,0.2,0.1,0.3,0.3,0.3h31c0.2,0,0.3-0.1,0.3-0.3v-1.5
	C47.8,24.3,46.7,23.2,45.4,23.2z M35.7,17.5c1.4,0,2.6,1.1,2.6,2.4c0,1.3-1.1,2.4-2.6,2.4h-2.6C33.2,18.7,34.3,17.5,35.7,17.5z
	 M28.3,17.5c1.4,0,2.6,1.2,2.6,4.9h-2.6c-1.4,0-2.6-1.1-2.6-2.4C25.7,18.5,26.9,17.5,28.3,17.5z M17.4,30.1v16.8
	c0,1.3,1.1,2.4,2.4,2.4h11.1V29.4H18C17.7,29.4,17.4,29.7,17.4,30.1z M46,29.4H33.1v19.9h11.1c1.3,0,2.4-1.1,2.4-2.4V30.1
	C46.6,29.7,46.3,29.4,46,29.4z"/>
</svg>
