<?xml version="1.0" encoding="utf-8"?>
<!-- Generator: Adobe Illustrator 21.0.0, SVG Export Plug-In . SVG Version: 6.00 Build 0)  -->
<svg version="1.1" id="Livello_1" xmlns="http://www.w3.org/2000/svg" xmlns:xlink="http://www.w3.org/1999/xlink" x="0px" y="0px"
	 viewBox="0 0 64 64" style="enable-background:new 0 0 64 64;" xml:space="preserve">
<style type="text/css">
	.st0{fill:#95A5A6;}
	.st1{fill:#FFFFFF;}
</style>
<circle class="st0" cx="32" cy="32" r="27.6"/>
<path class="st1" d="M32,14.7c-9.6,0-17.3,7.8-17.3,17.3S22.4,49.3,32,49.3S49.3,41.6,49.3,32S41.6,14.7,32,14.7z M43.9,36.7
	c-0.7-0.2-2-0.3-2.5-0.9c-0.2-0.3-0.1-1.4-0.1-1.4c2.1-0.1,2.6-0.5,2.6-0.5c0.3-0.2,0.2-0.2,0-0.5c-0.9-1.5-0.5-3.5-0.5-5.1
	c0-1.4-0.4-2.9-1.7-3.7c-0.6-0.4-1.6-0.6-2.6-0.6c-0.8,0-1.6,0.1-2.1,0.3c-3.5,1.4-1.5,6.1-2.7,8.8c-0.2,0.4-0.5,0.6,0,0.9
	c0,0,0.6,0.4,2.4,0.5c0,0,0,1,0,1.2c-0.1,0.4-1,0.7-1.3,0.8c-0.2,0.1-0.7,0.2-1.4,0.5c-0.3,0.1-0.3,0.6,0.1,0.6s0.7,0.1,1,0.2
	c0,0,2.2,0.5,3.8,2.1c1.1,1.1,1.5,2.3,1.7,3.7c0,0.4-0.1,0.7-0.5,1l-0.5,0.3c-0.2,0.1-0.3,0-0.4-0.2c0-2.5-1.5-4.6-3.8-5.4
	c-1.1-0.4-2.3-0.4-3.5-0.8c-0.3-0.1-1-0.3-1.2-0.7c-0.1-0.4-0.1-0.8-0.2-1.2c0-0.3,0-0.6,0-1c0-0.2,0.5-0.6,0.6-0.8
	c0.5-0.8,0.5-1.8,0.6-2.6c0.7,0.2,0.8-1.1,0.9-1.5c0.1-0.3,0.4-1.7-0.2-2c0.2-0.4,0.3-0.8,0.4-1.2c0.2-1.1,0.2-2.2-0.1-3.3
	c-0.7-2.2-2.8-3.4-4.9-3.5c-2.2-0.1-4.5,1-5.3,3.1c-0.4,1.1-0.4,2.2-0.2,3.3c0.1,0.5,0.1,1.1,0.4,1.5c-0.5,0.2-0.4,1.5-0.3,1.8
	c0.1,0.4,0.2,2,1,1.7c0.1,0.7,0.1,1.4,0.3,2c0.1,0.4,0.4,0.8,0.7,1.2c0.1,0.2,0.2,0.2,0.2,0.4c0,0.6,0,1.4-0.2,2s-1.6,0.9-2.1,1
	c-1.2,0.2-2.4,0.4-3.4,1C17.7,37.4,17,34.8,17,32c0-4,1.6-7.8,4.4-10.6c2.8-2.8,6.5-4.3,10.4-4.4c4,0,7.8,1.5,10.7,4.3
	C45.4,24.1,47,27.9,47,32c0,2.1-0.4,4.1-1.2,5.9C45.3,37.3,44.7,36.9,43.9,36.7L43.9,36.7z"/>
</svg>
