<?xml version="1.0" encoding="utf-8"?>
<!-- Generator: Adobe Illustrator 21.0.0, SVG Export Plug-In . SVG Version: 6.00 Build 0)  -->
<svg version="1.1" id="Livello_1" xmlns="http://www.w3.org/2000/svg" xmlns:xlink="http://www.w3.org/1999/xlink" x="0px" y="0px"
	 viewBox="0 0 64 64" style="enable-background:new 0 0 64 64;" xml:space="preserve">
<style type="text/css">
	.st0{fill:#E67E22;}
	.st1{fill:#FFFFFF;}
</style>
<circle class="st0" cx="32" cy="32.1" r="27.6"/>
<g>
	<path class="st1" d="M39.8,27.2l-5.5,8.4c0.4,0.5,0.7,1.2,0.7,1.9c0,1.7-1.4,3-3,3s-3-1.4-3-3c0-0.2,0-0.4,0.1-0.6l-3.6-2.1
		c-0.5,0.5-1.3,0.8-2.1,0.8c-0.5,0-1-0.1-1.5-0.4l-3.9,3.6v3.6c0,1.5,1.2,2.7,2.7,2.7h22.9c1.5,0,2.7-1.2,2.7-2.7V29.1l-3.7-2.5
		c-0.5,0.4-1.2,0.6-1.9,0.6C40.3,27.3,40,27.3,39.8,27.2L39.8,27.2z"/>
	<path class="st1" d="M23.2,29.6c1.7,0,3,1.4,3,3c0,0.1,0,0.3,0,0.4l3.8,2.1c0.5-0.4,1.2-0.7,1.9-0.7c0.2,0,0.4,0,0.7,0.1l5.5-8.5
		c-0.4-0.5-0.6-1.1-0.6-1.8c0-1.7,1.4-3,3-3s3,1.4,3,3c0,0.2,0,0.5-0.1,0.7l2.6,1.7v-5.1c0-1.5-1.2-2.7-2.7-2.7H20.6
		c-1.5,0-2.7,1.2-2.7,2.7v14.5l2.5-2.4c-0.1-0.3-0.2-0.7-0.2-1.1C20.2,31,21.6,29.6,23.2,29.6z"/>
</g>
</svg>
