<?xml version="1.0" encoding="utf-8"?>
<!-- Generator: Adobe Illustrator 21.0.0, SVG Export Plug-In . SVG Version: 6.00 Build 0)  -->
<svg version="1.1" id="Livello_1" xmlns="http://www.w3.org/2000/svg" xmlns:xlink="http://www.w3.org/1999/xlink" x="0px" y="0px"
	 viewBox="0 0 64 64" style="enable-background:new 0 0 64 64;" xml:space="preserve">
<style type="text/css">
	.st0{fill:#9B59B6;}
	.st1{fill:#FFFFFF;}
</style>
<circle class="st0" cx="32" cy="32.1" r="27.6"/>
<path class="st1" d="M44,35.7c-0.2-0.7-0.6-1.4-1.1-2.1c-0.5-0.6-1.1-1.2-1.8-1.7c-0.7-0.5-1.6-0.9-2.6-1.2c-0.4-0.1-1.1-0.3-2-0.5
	c-0.7-0.2-1.3-0.3-2-0.5v-8.2c0.7,0.2,1.2,0.5,1.7,0.8c1.1,0.7,1.8,1.9,2,3.5h5.3c-0.1-1.4-0.4-2.5-0.9-3.6
	c-0.6-1.1-1.5-2.1-2.5-2.9c-1.1-0.8-2.3-1.4-3.7-1.7c-0.6-0.2-1.1-0.3-1.8-0.4v-2.6h-4.9v2.6c-0.5,0.1-1.2,0.2-1.7,0.3
	c-1.3,0.3-2.5,0.8-3.5,1.5c-1,0.7-1.9,1.6-2.5,2.6c-0.6,1-1,2.3-1,3.7c0,0.7,0.1,1.5,0.3,2.2c0.2,0.7,0.6,1.4,1.1,2
	c0.5,0.6,1.2,1.2,2.1,1.7c0.9,0.5,1.9,0.9,3.2,1.2c0.7,0.2,1.5,0.4,2.1,0.5v9.2c-0.8-0.2-1.7-0.6-2.4-1c-0.7-0.5-1.2-1.1-1.6-1.8
	C25.2,38.8,25,38,25,37h-5.3c0.1,1.6,0.4,3,1.1,4.3c0.7,1.3,1.6,2.3,2.7,3.1c1.1,0.8,2.4,1.4,4,1.8c0.7,0.2,1.5,0.3,2.2,0.4v2.7h4.9
	v-2.7c0.8-0.1,1.5-0.2,2.2-0.4c1.4-0.3,2.8-0.9,3.9-1.6c1.1-0.7,2.1-1.6,2.7-2.8c0.7-1.1,1-2.5,1-4.1C44.4,37.2,44.2,36.5,44,35.7
	L44,35.7z M29.5,28.5c-0.9-0.3-1.8-0.7-2.5-1.2c-0.7-0.6-1-1.4-1-2.4c0-0.7,0.2-1.3,0.5-1.8c0.4-0.5,0.8-0.9,1.3-1.1
	c0.5-0.2,1.1-0.4,1.6-0.6V28.5z M38.7,40.1c-0.2,0.5-0.6,1-1.1,1.4c-0.5,0.4-1.2,0.7-2,1c-0.3,0.1-0.6,0.2-1.1,0.2v-8.3
	c0.8,0.2,1.4,0.4,2,0.6c0.6,0.2,1.2,0.6,1.7,1.1c0.5,0.5,0.8,1.3,0.8,2.4C39,39.1,38.9,39.6,38.7,40.1L38.7,40.1z"/>
</svg>
