<?xml version="1.0" encoding="utf-8"?>
<!-- Generator: Adobe Illustrator 21.0.0, SVG Export Plug-In . SVG Version: 6.00 Build 0)  -->
<svg version="1.1" id="Livello_1" xmlns="http://www.w3.org/2000/svg" xmlns:xlink="http://www.w3.org/1999/xlink" x="0px" y="0px"
	 viewBox="0 0 64 64" style="enable-background:new 0 0 64 64;" xml:space="preserve">
<style type="text/css">
	.st0{fill:#2ECC71;}
	.st1{fill:#FFFFFF;}
</style>
<circle class="st0" cx="32" cy="32" r="27.6"/>
<g>
	<path class="st1" d="M44.4,46.4l-1.9-4.8c-0.1-0.4-0.5-0.6-0.9-0.6c-0.3,0-0.6,0.2-0.8,0.4c-0.2,0.3-0.2,0.6-0.1,0.9l1.8,4.8
		c0.1,0.4,0.5,0.6,0.9,0.6h0c0.3,0,0.6-0.2,0.8-0.4C44.5,47,44.6,46.7,44.4,46.4z M22.3,41c-0.4,0-0.7,0.2-0.9,0.6l-1.9,4.8
		c-0.1,0.3-0.1,0.6,0.1,0.9c0.2,0.3,0.5,0.4,0.8,0.4h0c0.4,0,0.7-0.2,0.9-0.6l1.8-4.8c0.1-0.3,0.1-0.6-0.1-0.9
		C22.9,41.1,22.6,41,22.3,41L22.3,41z M32,41L32,41c-0.6,0-1,0.4-1,0.9v2.5c0,0.5,0.4,1,0.9,1H32c0.5,0,0.9-0.5,0.9-1v-2.5
		C33,41.4,32.6,41,32,41z"/>
	<g>
		<path class="st1" d="M43.8,23H20.2c-0.3,0-0.6,0.3-0.6,0.6v12.3c0,0.3,0.3,0.6,0.6,0.6h23.5c0.3,0,0.6-0.3,0.6-0.6V23.6
			C44.3,23.3,44.1,23,43.8,23z"/>
		<path class="st1" d="M45.4,19.7H18.6c-1.2,0-2.2,1-2.2,2.2v15.7c0,1.2,1,2.2,2.2,2.2h26.9c1.2,0,2.2-1,2.2-2.2V21.9
			C47.7,20.7,46.7,19.7,45.4,19.7z M45.7,36.8c0,0.6-0.5,1.1-1.1,1.1H19.4c-0.6,0-1.1-0.5-1.1-1.1v-14c0-0.6,0.5-1.1,1.1-1.1h25.5
			c0.2,0,0.4,0.1,0.6,0.2c0.1,0.1,0.2,0.3,0.2,0.6L45.7,36.8L45.7,36.8z"/>
	</g>
	<path class="st1" d="M32,16.3c-0.9,0-1.7,0.9-1.7,1.8h3.4C33.7,17.2,32.9,16.3,32,16.3L32,16.3z"/>
</g>
</svg>
