<?xml version="1.0" encoding="utf-8"?>
<!-- Generator: Adobe Illustrator 21.0.0, SVG Export Plug-In . SVG Version: 6.00 Build 0)  -->
<svg version="1.1" id="Livello_1" xmlns="http://www.w3.org/2000/svg" xmlns:xlink="http://www.w3.org/1999/xlink" x="0px" y="0px"
	 viewBox="0 0 64 64" style="enable-background:new 0 0 64 64;" xml:space="preserve">
<style type="text/css">
	.st0{fill:#745EC5;}
	.st1{fill:#FFFFFF;}
</style>
<circle class="st0" cx="32" cy="32" r="27.6"/>
<path class="st1" d="M32,29.1c-1.6,0-2.9,1.3-2.9,2.9s1.3,2.9,2.9,2.9c1.6,0,2.9-1.3,2.9-2.9S33.6,29.1,32,29.1L32,29.1z M20.4,29.1
	c-1.6,0-2.9,1.3-2.9,2.9s1.3,2.9,2.9,2.9s2.9-1.3,2.9-2.9S22,29.1,20.4,29.1z M43.6,29.1c-1.6,0-2.9,1.3-2.9,2.9s1.3,2.9,2.9,2.9
	s2.9-1.3,2.9-2.9S45.2,29.1,43.6,29.1z"/>
</svg>
