<?xml version="1.0" encoding="utf-8"?>
<!-- Generator: Adobe Illustrator 18.0.0, SVG Export Plug-In . SVG Version: 6.00 Build 0)  -->
<!DOCTYPE svg PUBLIC "-//W3C//DTD SVG 1.1//EN" "http://www.w3.org/Graphics/SVG/1.1/DTD/svg11.dtd">
<svg version="1.1" id="Livello_1" xmlns="http://www.w3.org/2000/svg" xmlns:xlink="http://www.w3.org/1999/xlink" x="0px" y="0px"
	 viewBox="0 0 64 64" enable-background="new 0 0 64 64" xml:space="preserve">
<g>
	<circle fill="#A2EF70" stroke="#59B71C" stroke-width="3" stroke-miterlimit="10" cx="32" cy="32" r="27.6"/>
</g>
<g>
	<path fill="#59B71C" d="M27.9,38.5v-13c0-1.8,1.4-3.3,3.3-3.3h15v-1.6c0-1.8-1.4-3.3-3.2-3.3H19.5c-1.8,0-3.4,1.4-3.4,3.2v22.9
		c0,1.8,1.5,3.2,3.4,3.2H43c1.8,0,3.2-1.5,3.2-3.3v-1.6h-15C29.4,41.8,27.9,40.3,27.9,38.5z"/>
	<path fill="#59B71C" d="M31.2,26.7v10.7c0,0.7,0.5,1.2,1.2,1.2h14.2c0.7,0,1.2-0.5,1.2-1.2V26.7c0-0.7-0.5-1.2-1.2-1.2H32.4
		C31.7,25.4,31.2,26,31.2,26.7z M37,34.4c-1.5,0.1-2.7-1.1-2.6-2.6c0.1-1.2,1.1-2.2,2.3-2.3c1.5-0.1,2.7,1.1,2.6,2.6
		C39.2,33.4,38.2,34.4,37,34.4z"/>
</g>
</svg>
