<?xml version="1.0" encoding="utf-8"?>
<!-- Generator: Adobe Illustrator 21.0.0, SVG Export Plug-In . SVG Version: 6.00 Build 0)  -->
<svg version="1.1" id="Livello_1" xmlns="http://www.w3.org/2000/svg" xmlns:xlink="http://www.w3.org/1999/xlink" x="0px" y="0px"
	 viewBox="0 0 64 64" style="enable-background:new 0 0 64 64;" xml:space="preserve">
<style type="text/css">
	.st0{fill:#A5C63B;}
	.st1{fill:#FFFFFF;}
</style>
<circle class="st0" cx="32" cy="32" r="27.6"/>
<path class="st1" d="M16.2,20.7v18.7h32.7V20.7H16.2z M27.9,37H22c0-1.9-1.6-3.5-3.5-3.5v-5.8c2.6,0,4.7-2.1,4.7-4.7h4.7
	c-1.5,1.7-2.4,4.2-2.4,7S26.4,35.3,27.9,37z M46.5,33.5c-1.9,0-3.5,1.6-3.5,3.5h-5.9c1.5-1.7,2.4-4.2,2.4-7s-0.9-5.3-2.4-7h4.7
	c0,2.6,2.1,4.7,4.7,4.7V33.5z M16.2,41.7h32.7V44H16.2V41.7z"/>
</svg>
