<?xml version="1.0" encoding="utf-8"?>
<!-- Generator: Adobe Illustrator 21.0.0, SVG Export Plug-In . SVG Version: 6.00 Build 0)  -->
<svg version="1.1" id="Livello_1" xmlns="http://www.w3.org/2000/svg" xmlns:xlink="http://www.w3.org/1999/xlink" x="0px" y="0px"
	 viewBox="0 0 64 64" style="enable-background:new 0 0 64 64;" xml:space="preserve">
<style type="text/css">
	.st0{fill:#F47CC3;}
	.st1{fill:#FFFFFF;}
</style>
<circle class="st0" cx="32" cy="32" r="27.6"/>
<path class="st1" d="M48.8,24.5c-0.4-0.9-1.1-1.5-1.9-1.8c-0.4-0.1-0.8-0.2-1.2-0.2c-1.8,0-3.6,1.4-4.5,3.4c-1.1,2.6-0.5,5,1.5,5.8
	c0.4,0.1,0.8,0.2,1.3,0.2c1.8,0,3.7-1.3,4.6-3.2C49.3,27.4,49.4,25.8,48.8,24.5L48.8,24.5z M22.8,25.9c-0.9-2.1-2.7-3.4-4.5-3.4
	c-0.4,0-0.8,0.1-1.2,0.2c-0.9,0.3-1.5,1-1.9,1.8c-0.6,1.3-0.5,2.9,0.2,4.3c0.9,1.9,2.8,3.2,4.6,3.2c0.4,0,0.9-0.1,1.3-0.2
	C23.3,31,24,28.5,22.8,25.9L22.8,25.9z M26.8,25.7c0.2,0,0.3,0,0.5,0c1-0.1,1.8-0.5,2.5-1.2c1.1-1.1,1.4-2.9,1.2-4.7
	c-0.4-2.8-2.1-4.9-4.5-5c0,0-0.3,0-0.5,0c-1.1,0.1-2,0.5-2.8,1.3c-1.1,1.1-1.6,2.8-1.4,4.4C22.2,23.3,24.4,25.6,26.8,25.7z M32,29.3
	c-5.7,0-11.5,8-11.5,14.6c0,2,1,3.5,1.9,4.2c1.2,0.8,2,1.1,3.8,1.1c1.1,0,1.8-0.2,2.3-0.5c1-0.6,2.1-0.9,3.3-0.9h0.3
	c1.2,0,2.3,0.3,3.3,0.9c0.5,0.3,1.2,0.5,2.3,0.5c1.7,0,2.6-0.3,3.8-1.1c1-0.6,1.9-2.2,1.9-4.2C43.5,37.4,37.7,29.3,32,29.3z
	 M36.7,25.6c0.2,0,0.3,0,0.5,0c2.5-0.1,4.7-2.3,5-5.1c0.2-1.7-0.3-3.3-1.4-4.4c-0.8-0.8-1.7-1.2-2.7-1.3c-0.2,0-0.6,0-0.6,0
	c-2.4,0.1-4.2,2.2-4.5,5c-0.2,1.8,0.1,3.6,1.2,4.7C34.8,25.1,35.7,25.6,36.7,25.6L36.7,25.6z"/>
</svg>
