<?xml version="1.0" encoding="utf-8"?>
<!-- Generator: Adobe Illustrator 21.0.0, SVG Export Plug-In . SVG Version: 6.00 Build 0)  -->
<svg version="1.1" id="Livello_1" xmlns="http://www.w3.org/2000/svg" xmlns:xlink="http://www.w3.org/1999/xlink" x="0px" y="0px"
	 viewBox="0 0 64 64" style="enable-background:new 0 0 64 64;" xml:space="preserve">
<style type="text/css">
	.st0{fill:#745EC5;}
	.st1{fill:#FFFFFF;}
</style>
<circle class="st0" cx="32" cy="32" r="27.6"/>
<path class="st1" d="M39.3,11.5H24.8c-1.7,0-3,1.3-3,3v34.9c0,1.7,1.4,3.1,3,3.1h14.5c1.7,0,3-1.4,3-3.1V14.5
	C42.3,12.8,41,11.5,39.3,11.5z M30.6,13.6h2.7c0.2,0,0.4,0.2,0.4,0.4c0,0.2-0.2,0.4-0.4,0.4h-2.7c-0.2,0-0.4-0.2-0.4-0.4
	C30.3,13.8,30.4,13.6,30.6,13.6z M32.1,51.1c-0.9,0-1.6-0.7-1.6-1.6c0-0.9,0.7-1.6,1.6-1.6c0.9,0,1.6,0.7,1.6,1.6
	C33.6,50.4,32.9,51.1,32.1,51.1z M40.6,46.6H23.4c-0.1,0-0.2-0.1-0.2-0.2V16.4c0-0.1,0.1-0.2,0.2-0.2h17.2c0.1,0,0.2,0.1,0.2,0.2
	v30.1C40.8,46.6,40.7,46.6,40.6,46.6z"/>
</svg>
