<?xml version="1.0" encoding="utf-8"?>
<!-- Generator: Adobe Illustrator 21.0.0, SVG Export Plug-In . SVG Version: 6.00 Build 0)  -->
<svg version="1.1" id="Livello_1" xmlns="http://www.w3.org/2000/svg" xmlns:xlink="http://www.w3.org/1999/xlink" x="0px" y="0px"
	 viewBox="0 0 64 64" style="enable-background:new 0 0 64 64;" xml:space="preserve">
<style type="text/css">
	.st0{fill:#BDC3C7;}
	.st1{fill:#FFFFFF;}
</style>
<circle class="st0" cx="32" cy="32" r="27.6"/>
<path class="st1" d="M32.1,15c6.6,0,11.2,3.7,11.2,9c0,3.5-1.7,5.9-5,7.8c-3.1,1.8-4.1,3.1-4.1,5.3v1.4h-6.1L28,37.1
	c-0.3-3.6,1-5.9,4.2-7.8c3-1.8,4.2-2.9,4.2-5.1s-2.1-3.8-4.7-3.8c-2.7,0-4.6,1.7-4.7,4.3h-6.3C20.8,19.1,25,15,32.1,15z M27.5,45.3
	c0-2,1.7-3.6,3.8-3.6c2.1,0,3.8,1.6,3.8,3.6S33.4,49,31.3,49S27.5,47.4,27.5,45.3L27.5,45.3z"/>
</svg>
