<?xml version="1.0" encoding="utf-8"?>
<!-- Generator: Adobe Illustrator 21.0.0, SVG Export Plug-In . SVG Version: 6.00 Build 0)  -->
<svg version="1.1" id="Livello_1" xmlns="http://www.w3.org/2000/svg" xmlns:xlink="http://www.w3.org/1999/xlink" x="0px" y="0px"
	 viewBox="0 0 64 64" style="enable-background:new 0 0 64 64;" xml:space="preserve">
<style type="text/css">
	.st0{fill:#2ECC71;}
	.st1{fill:#FFFFFF;}
</style>
<circle class="st0" cx="32" cy="32" r="27.6"/>
<g>
	
		<ellipse transform="matrix(0.9998 -1.844708e-02 1.844708e-02 0.9998 -0.8222 0.463)" class="st1" cx="24.7" cy="44.8" rx="1.8" ry="1.8"/>
	
		<ellipse transform="matrix(2.382039e-02 -0.9997 0.9997 2.382039e-02 -3.9945 85.5028)" class="st1" cx="41.8" cy="44.8" rx="1.8" ry="1.8"/>
	<path class="st1" d="M47.8,22.6c-0.1-0.2-0.2-0.3-0.4-0.3l-24.8-2.4c-0.2,0-0.5-0.2-0.6-0.4c-0.3-0.5-0.5-0.8-0.9-1.4
		c-0.6-0.7-1.7-0.7-3.7-0.7c-0.7,0-1.2,0.4-1.2,1.1c0,0.7,0.5,1.1,1.2,1.1s1.6,0,2,0.1c0.4,0.1,0.6,0.7,0.8,1.2c0,0,0,0,0,0
		c0,0.1,0.2,0.8,0.2,0.8l3,16.1c0.2,1.1,0.6,2,1.1,2.7c0.6,0.8,1.5,1.2,2.5,1.2h18c0.6,0,1.1-0.4,1.1-1c0-0.6-0.5-1.1-1.1-1.1H26.9
		c-0.2,0-0.4,0-0.6-0.2c-0.3-0.2-0.6-0.8-0.9-2l-0.3-1.8c0,0,0,0,0,0L46.2,32c0.2,0,0.4-0.2,0.4-0.4l1.2-8.8
		C47.8,22.7,47.8,22.6,47.8,22.6L47.8,22.6z"/>
</g>
</svg>
