<?xml version="1.0" encoding="utf-8"?>
<!-- Generator: Adobe Illustrator 21.0.0, SVG Export Plug-In . SVG Version: 6.00 Build 0)  -->
<svg version="1.1" id="Livello_1" xmlns="http://www.w3.org/2000/svg" xmlns:xlink="http://www.w3.org/1999/xlink" x="0px" y="0px"
	 viewBox="0 0 64 64" style="enable-background:new 0 0 64 64;" xml:space="preserve">
<style type="text/css">
	.st0{fill:#E67E22;}
	.st1{fill:#FFFFFF;}
</style>
<circle class="st0" cx="32" cy="32" r="27.6"/>
<path class="st1" d="M43.6,14.6c-2.2,0-4.4,7-4.4,14.5c0,5.2,2.9,7.3,2.9,7.3V48c0,0.8,0.7,1.5,1.5,1.5s1.5-0.7,1.5-1.5V15.6
	C45.1,14.6,44.1,14.6,43.6,14.6z M34.9,14.6l0.9,9.4c0,0.4-0.3,0.7-0.7,0.7s-0.7-0.3-0.7-0.7l-0.5-9.4h-0.7L32.5,24
	c0,0.4-0.3,0.7-0.7,0.7s-0.7-0.3-0.7-0.7l0.9-9.4h-0.7c0,0-2.2,9.7-2.2,11.6s1.2,3.5,2.9,4.1V48c0,0.8,0.7,1.5,1.5,1.5
	s1.5-0.7,1.5-1.5V30.3c1.7-0.6,2.9-2.2,2.9-4.1s-2.2-11.6-2.2-11.6H34.9z M23.3,14.6c-2.4,0-4.4,5.8-4.4,11.6c0,1.9,1.2,3.5,2.9,4.1
	V48c0,0.8,0.7,1.5,1.5,1.5c0.8,0,1.5-0.7,1.5-1.5V30.3c1.7-0.6,2.9-2.2,2.9-4.1C27.6,20.4,25.7,14.6,23.3,14.6z"/>
</svg>
