<?xml version="1.0" encoding="utf-8"?>
<!-- Generator: Adobe Illustrator 21.0.0, SVG Export Plug-In . SVG Version: 6.00 Build 0)  -->
<svg version="1.1" id="Livello_1" xmlns="http://www.w3.org/2000/svg" xmlns:xlink="http://www.w3.org/1999/xlink" x="0px" y="0px"
	 viewBox="0 0 64 64" style="enable-background:new 0 0 64 64;" xml:space="preserve">
<style type="text/css">
	.st0{fill:#9B59B6;}
	.st1{fill:#FFFFFF;}
</style>
<circle class="st0" cx="32" cy="32" r="27.6"/>
<path class="st1" d="M52.8,2.9c-1.1,0-1.9,0.9-1.9,1.9s0.9,1.9,1.9,1.9c1.1,0,1.9-0.9,1.9-1.9S53.9,2.9,52.8,2.9z"/>
<path class="st1" d="M46.7,31.5c-1.5-6.2-3-9.5-6.2-10.4c-0.7-0.2-1.3-0.3-1.8-0.3c-1.9,0-3.3,1-6.7,1s-4.8-1-6.7-1
	c-0.5,0-1.1,0.1-1.8,0.3c-3.1,0.9-4.7,4.2-6.2,10.4c-1.5,6.2-1.2,10.6,0.5,11.5c0.3,0.1,0.6,0.2,0.9,0.2c1.5,0,3.1-1.7,4.7-3.6
	c1.8-2.2,2.2-2.3,7.7-2.3h1.7c5.5,0,5.9,0.1,7.7,2.3c1.6,2,3.2,3.6,4.7,3.6c0.3,0,0.6-0.1,0.9-0.2C47.9,42.1,48.2,37.7,46.7,31.5
	L46.7,31.5z M23.6,32.5c-1.5,0-2.7-1.2-2.7-2.8s1.2-2.8,2.7-2.8c1.5,0,2.7,1.2,2.7,2.8C26.3,31.3,25.1,32.5,23.6,32.5z M35.6,31.2
	c-0.8,0-1.4-0.6-1.4-1.4s0.6-1.4,1.4-1.4c0.8,0,1.4,0.6,1.4,1.4S36.4,31.2,35.6,31.2z M38.7,34.2c-0.8,0-1.4-0.6-1.4-1.4
	c0-0.8,0.6-1.4,1.4-1.4c0.8,0,1.4,0.6,1.4,1.4C40.1,33.6,39.5,34.2,38.7,34.2z M38.7,28.1c-0.8,0-1.4-0.6-1.4-1.4
	c0-0.8,0.6-1.4,1.4-1.4c0.8,0,1.4,0.6,1.4,1.4C40.1,27.5,39.5,28.1,38.7,28.1z M41.8,31.2c-0.8,0-1.4-0.6-1.4-1.4s0.6-1.4,1.4-1.4
	s1.4,0.6,1.4,1.4S42.5,31.2,41.8,31.2z"/>
</svg>
