<?xml version="1.0" encoding="utf-8"?>
<!-- Generator: Adobe Illustrator 21.0.0, SVG Export Plug-In . SVG Version: 6.00 Build 0)  -->
<svg version="1.1" id="Livello_1" xmlns="http://www.w3.org/2000/svg" xmlns:xlink="http://www.w3.org/1999/xlink" x="0px" y="0px"
	 viewBox="0 0 64 64" style="enable-background:new 0 0 64 64;" xml:space="preserve">
<style type="text/css">
	.st0{fill:#A5C63B;}
	.st1{fill:#FFFFFF;}
</style>
<circle class="st0" cx="32" cy="32" r="27.6"/>
<path class="st1" d="M28.8,36.3c1.2-1,2.4-2.1,3.5-3.2l0.5-0.5c-0.2-0.2-0.5-0.5-0.7-0.7c-4.3-4.3-9.2-7.6-14.7-10.1
	c-1.6,2.2-2.6,4.8-3.1,7.6c2.7,0.2,5.4,0.9,7.9,2.1C24.8,32.7,26.9,34.3,28.8,36.3z M38,26c0,0,0.1,0.1,0.1,0.1
	c1.8-2.6,3.3-5.4,4.6-8.3c-2.9-2.2-6.5-3.5-10.3-3.6c0.2,1.9,0.7,3.8,1.4,5.5C34.8,22.1,36.2,24.2,38,26L38,26z M44.2,30.2
	c1.8,0.8,3.6,1.2,5.5,1.4c-0.1-4.8-2.1-9.1-5.3-12.3c-1.3,2.9-2.8,5.7-4.6,8.3C41.2,28.7,42.6,29.5,44.2,30.2z M26.7,37.3
	c-1.8-1.8-3.9-3.2-6.2-4.2c-2-0.8-4.1-1.3-6.2-1.5c0,0.1,0,0.3,0,0.4c0,4.2,1.4,8,3.8,11c3.2-1.5,6.2-3.2,9-5.3
	C26.9,37.5,26.8,37.4,26.7,37.3L26.7,37.3z M34.4,30.9c0.9-1,1.7-2,2.5-3c-3.8-3.6-6.2-8.4-6.7-13.6c-4.4,0.5-8.4,2.5-11.2,5.7
	c2.9,1.3,5.6,2.9,8.2,4.7C29.7,26.5,32.1,28.6,34.4,30.9L34.4,30.9z M35.9,32.6c3.3,3.8,6.1,8,8.1,12.5c3.1-2.9,5.2-6.8,5.7-11.2
	c-4.1-0.4-7.9-1.9-11.2-4.4C37.7,30.5,36.8,31.6,35.9,32.6L35.9,32.6z M30.2,38c2.6,3.4,4.1,7.4,4.4,11.6c2.8-0.4,5.4-1.5,7.6-3.1
	c-2-4.5-4.6-8.6-7.9-12.3C33.1,35.5,31.7,36.8,30.2,38L30.2,38z M28.5,39.4c-2.8,2.1-5.8,3.9-8.9,5.4c3.2,3.1,7.6,5,12.4,5
	c0.1,0,0.3,0,0.4,0c-0.2-2.2-0.6-4.2-1.5-6.2C30.3,42,29.5,40.6,28.5,39.4L28.5,39.4z"/>
</svg>
