<?xml version="1.0" encoding="utf-8"?>
<!-- Generator: Adobe Illustrator 21.0.0, SVG Export Plug-In . SVG Version: 6.00 Build 0)  -->
<svg version="1.1" id="Livello_1" xmlns="http://www.w3.org/2000/svg" xmlns:xlink="http://www.w3.org/1999/xlink" x="0px" y="0px"
	 viewBox="0 0 64 64" style="enable-background:new 0 0 64 64;" xml:space="preserve">
<style type="text/css">
	.st0{fill:#345F41;}
	.st1{fill:#FFFFFF;}
</style>
<circle class="st0" cx="32" cy="32" r="27.6"/>
<path class="st1" d="M41.5,15H22.5c-1.4,0-2.6,1.2-2.6,2.6v28.7c0,1.4,1.2,2.6,2.6,2.6h18.9c1.4,0,2.6-1.2,2.6-2.6V17.6
	C44.1,16.2,42.9,15,41.5,15z M40.5,37.2v6.5c0,1.1-0.9,2-2,2c-1.1,0-2-0.9-2-2v-6.5c0-1.1,0.9-2,2-2C39.6,35.3,40.5,36.1,40.5,37.2z
	 M40.5,30.7c0,1.1-0.9,2-2,2c-1.1,0-2-0.9-2-2s0.9-2,2-2C39.6,28.7,40.5,29.6,40.5,30.7z M34,43.7c0,1.1-0.9,2-2,2s-2-0.9-2-2
	s0.9-2,2-2S34,42.7,34,43.7z M34,37.2c0,1.1-0.9,2-2,2s-2-0.9-2-2c0-1.1,0.9-2,2-2S34,36.1,34,37.2z M34,30.7c0,1.1-0.9,2-2,2
	s-2-0.9-2-2s0.9-2,2-2S34,29.6,34,30.7z M27.4,43.7c0,1.1-0.9,2-2,2c-1.1,0-2-0.9-2-2s0.9-2,2-2C26.6,41.8,27.4,42.7,27.4,43.7z
	 M27.4,37.2c0,1.1-0.9,2-2,2c-1.1,0-2-0.9-2-2c0-1.1,0.9-2,2-2C26.6,35.3,27.4,36.1,27.4,37.2z M27.4,30.7c0,1.1-0.9,2-2,2
	c-1.1,0-2-0.9-2-2s0.9-2,2-2C26.6,28.7,27.4,29.6,27.4,30.7z M23.5,24.2v-3.9c0-0.7,0.6-1.3,1.3-1.3h14.4c0.7,0,1.3,0.6,1.3,1.3v3.9
	c0,0.7-0.6,1.3-1.3,1.3H24.8C24.1,25.5,23.5,24.9,23.5,24.2z"/>
</svg>
