<?xml version="1.0" encoding="utf-8"?>
<!-- Generator: Adobe Illustrator 21.0.0, SVG Export Plug-In . SVG Version: 6.00 Build 0)  -->
<svg version="1.1" id="Livello_1" xmlns="http://www.w3.org/2000/svg" xmlns:xlink="http://www.w3.org/1999/xlink" x="0px" y="0px"
	 viewBox="0 0 64 64" style="enable-background:new 0 0 64 64;" xml:space="preserve">
<style type="text/css">
	.st0{fill:#5E4534;}
	.st1{fill:#FFFFFF;}
</style>
<circle class="st0" cx="32" cy="32" r="27.6"/>
<path class="st1" d="M28.9,13.9c2.5,11.7-9.5,11.5-9.4,23.2c0.1,9.6,10.3,12.9,12.6,12.9S43.8,48,44.5,37.2
	C45.1,27.9,37.4,19.1,28.9,13.9z M35.3,44.7c-0.9,3.4-5.7,3.4-6.6,0c-0.1-0.5-0.2-1-0.2-1.5c0-3.6,3.5-7.7,3.5-7.7s3.5,4.1,3.5,7.7
	C35.5,43.8,35.5,44.3,35.3,44.7L35.3,44.7z"/>
</svg>
