<?xml version="1.0" encoding="utf-8"?>
<!-- Generator: Adobe Illustrator 21.0.0, SVG Export Plug-In . SVG Version: 6.00 Build 0)  -->
<svg version="1.1" id="Livello_1" xmlns="http://www.w3.org/2000/svg" xmlns:xlink="http://www.w3.org/1999/xlink" x="0px" y="0px"
	 viewBox="0 0 64 64" style="enable-background:new 0 0 64 64;" xml:space="preserve">
<style type="text/css">
	.st0{fill:#34495E;}
	.st1{fill:#FFFFFF;}
</style>
<circle class="st0" cx="32" cy="32" r="27.6"/>
<g>
	<path class="st1" d="M32.5,27.9c-0.1-0.2-0.4-0.2-0.6-0.1l-6.7,8.9c-0.2,0.2,0,0.5,0.2,0.6l11.7,1c0.3,0,0.5-0.3,0.3-0.5L32.5,27.9
		L32.5,27.9z M40.1,32.6c-0.1-0.2-0.4-0.2-0.6-0.1l-1.8,1.8c-0.1,0.1-0.1,0.3,0,0.4l1.8,3.6c0.1,0.1,0.2,0.2,0.3,0.2l3.3,0.3
		c0.3,0,0.5-0.3,0.3-0.5L40.1,32.6L40.1,32.6z M40.9,29.7c0.8,0,1.5-0.6,1.7-1.4c0.2-1.1-0.6-2.1-1.7-2c-0.8,0-1.5,0.6-1.7,1.4
		C39,28.7,39.8,29.7,40.9,29.7z"/>
	<path class="st1" d="M46.5,22.8l-4.8-0.4l-0.4-4.9c-0.1-1.1-1.1-1.9-2.1-1.8l-21.6,2c-1.1,0.1-1.9,1.1-1.8,2.1l2,21.6
		c0.1,1.1,1.1,1.9,2.1,1.8l1.1-0.1l-0.1,1.2c-0.1,1.1,0.7,2,1.8,2.1l21.6,1.9c1.1,0.1,2-0.7,2.1-1.8l1.9-21.6
		C48.4,23.8,47.6,22.9,46.5,22.8L46.5,22.8z M19.7,35.3c-0.3,0-0.5-0.2-0.5-0.4l-1.3-14.6c0-0.3,0.2-0.5,0.4-0.5l20.3-1.8
		c0.3,0,0.5,0.2,0.5,0.4l0.3,3.8l-14.7-1.3c-1.1-0.1-2,0.7-2.1,1.8l-1.1,12.4L19.7,35.3L19.7,35.3z M46.1,25.4l-1.3,14.6
		c0,0.3-0.3,0.5-0.5,0.5l-1.4-0.1l-19-1.7c-0.3,0-0.5-0.3-0.5-0.5l0.3-3.2l1-11.4c0-0.3,0.3-0.5,0.5-0.5l14.4,1.3l2.2,0.2l3.8,0.3
		C45.9,24.9,46.1,25.1,46.1,25.4z"/>
</g>
</svg>
